<?xml version="1.0" encoding="UTF-8" standalone="no"?>
<svg
   width="174"
   height="65"
   viewBox="0 0 174 65"
   fill="none"
   version="1.1"
   id="svg32"
   sodipodi:docname="xgfghh.svg"
   inkscape:version="1.1.1 (3bf5ae0d25, 2021-09-20)"
   xmlns:inkscape="http://www.inkscape.org/namespaces/inkscape"
   xmlns:sodipodi="http://sodipodi.sourceforge.net/DTD/sodipodi-0.dtd"
   xmlns="http://www.w3.org/2000/svg"
   xmlns:svg="http://www.w3.org/2000/svg">
  <defs
     id="defs36" />
  <sodipodi:namedview
     id="namedview34"
     pagecolor="#ffffff"
     bordercolor="#666666"
     borderopacity="1.0"
     inkscape:pageshadow="2"
     inkscape:pageopacity="0.0"
     inkscape:pagecheckerboard="0"
     showgrid="false"
     inkscape:zoom="5.8966203"
     inkscape:cx="82.080916"
     inkscape:cy="52.572488"
     inkscape:window-width="1920"
     inkscape:window-height="986"
     inkscape:window-x="-11"
     inkscape:window-y="-11"
     inkscape:window-maximized="1"
     inkscape:current-layer="svg32" />
  <path
     d="M76.3077 24.0599L71.4375 16.5066V23.8503C71.4375 24.0669 71.2628 24.2346 71.0532 24.2346H69.3693C69.1597 24.2346 68.985 24.0599 68.985 23.8503V12.0347C68.985 11.8251 69.1597 11.6504 69.3693 11.6504H70.9694C71.1021 11.6504 71.2209 11.7133 71.2908 11.8251L76.161 19.3574V12.0347C76.161 11.8251 76.3356 11.6504 76.5453 11.6504H78.2292C78.4388 11.6504 78.6135 11.8251 78.6135 12.0347V23.8572C78.6135 24.0738 78.4388 24.2415 78.2292 24.2415H76.6291C76.4963 24.2415 76.3776 24.1717 76.3077 24.0669V24.0599ZM83.0574 20.3426C82.8199 20.3426 82.6312 20.5592 82.6731 20.7898C82.8338 21.7401 83.5326 22.3899 84.6506 22.3899C85.51 22.3899 85.9921 22.1873 86.4812 21.768C86.6349 21.6353 86.8585 21.6423 87.0053 21.782L87.8507 22.6065C88.0115 22.7672 87.9975 23.0257 87.8298 23.1795C86.9913 23.9341 86.1179 24.3394 84.6366 24.3394C82.4635 24.3394 80.3743 23.3472 80.3743 19.6159C80.3743 16.6114 82.0024 14.9135 84.392 14.9135C86.9564 14.9135 88.4097 16.7861 88.4097 19.3155V19.9583C88.4097 20.1679 88.235 20.3426 88.0254 20.3426H83.0644H83.0574ZM85.9222 17.7783C85.6777 17.2333 85.1606 16.821 84.385 16.821C83.6094 16.821 83.0924 17.2263 82.8478 17.7783C82.7081 18.1137 82.6522 18.3652 82.6382 18.7705H86.1389C86.1179 18.3652 86.069 18.1137 85.9292 17.7783H85.9222ZM98.9815 24.2346H97.654C97.4863 24.2346 97.3395 24.1297 97.2836 23.969L95.446 18.4491L93.6083 23.969C93.5524 24.1297 93.4057 24.2346 93.245 24.2346H91.9174C91.7497 24.2346 91.5959 24.1228 91.547 23.962L88.9547 15.5214C88.8779 15.2768 89.0665 15.0253 89.3251 15.0253H90.9461C91.1208 15.0253 91.2745 15.1441 91.3234 15.3117L92.7349 20.7199L94.5236 15.2908C94.5726 15.1301 94.7263 15.0253 94.894 15.0253H96.0189C96.1866 15.0253 96.3334 15.1301 96.3893 15.2908L98.192 20.7199L99.6034 15.3117C99.6453 15.1441 99.7991 15.0253 99.9737 15.0253H101.574C101.832 15.0253 102.021 15.2768 101.944 15.5214L99.3658 23.962C99.3169 24.1228 99.1632 24.2346 98.9955 24.2346H98.9815ZM76.8248 39.963C75.9933 40.7945 74.8124 41.1648 73.4988 41.1648H69.3413C69.1317 41.1648 68.957 40.9901 68.957 40.7805V28.958C68.957 28.7414 69.1317 28.5737 69.3413 28.5737H73.4988C74.8054 28.5737 75.9933 28.944 76.8248 29.7755C78.2432 31.1869 78.0964 32.9268 78.0964 34.8134C78.0964 36.6999 78.2362 38.5446 76.8248 39.963ZM75.1059 31.5433C74.6796 31.0332 74.1137 30.7677 73.2682 30.7677H71.4096V38.9778H73.2682C74.1137 38.9778 74.6866 38.7123 75.1059 38.2022C75.567 37.6362 75.6369 36.7349 75.6369 34.8273C75.6369 32.9198 75.567 32.1232 75.1059 31.5573V31.5433ZM82.191 37.2729C81.9534 37.2729 81.7648 37.4895 81.8067 37.7201C81.9674 38.6704 82.6662 39.3202 83.7841 39.3202C84.6436 39.3202 85.1257 39.1175 85.6148 38.6983C85.7685 38.5655 85.9921 38.5725 86.1389 38.7123L86.9843 39.5368C87.145 39.6975 87.1311 39.956 86.9634 40.1097C86.1249 40.8644 85.2515 41.2696 83.7701 41.2696C81.5971 41.2696 79.5079 40.2774 79.5079 36.5462C79.5079 33.5417 81.1359 31.8437 83.5256 31.8437C86.0899 31.8437 87.5433 33.7163 87.5433 36.2458V36.8886C87.5433 37.0982 87.3686 37.2729 87.159 37.2729H82.198H82.191ZM85.0558 34.7085C84.8113 34.1566 84.2942 33.7513 83.5186 33.7513C82.743 33.7513 82.226 34.1566 81.9814 34.7085C81.8417 35.0439 81.7857 35.2955 81.7718 35.7007H85.2724C85.2515 35.2955 85.2025 35.0439 85.0628 34.7085H85.0558ZM92.7978 41.1648H91.5331C91.3724 41.1648 91.2256 41.067 91.1697 40.9133L88.0604 32.4726C87.9695 32.2211 88.1512 31.9555 88.4237 31.9555H90.0168C90.1845 31.9555 90.3312 32.0604 90.3802 32.2211L92.1689 37.6502L93.9367 32.2211C93.9856 32.0604 94.1393 31.9555 94.307 31.9555H95.9001C96.1657 31.9555 96.3543 32.2211 96.2635 32.4726L93.1681 40.9133C93.1122 41.067 92.9655 41.1648 92.8048 41.1648H92.7978ZM99.4357 37.2729C99.1982 37.2729 99.0095 37.4895 99.0514 37.7201C99.2121 38.6704 99.9109 39.3202 101.029 39.3202C101.888 39.3202 102.37 39.1175 102.86 38.6983C103.013 38.5655 103.237 38.5725 103.384 38.7123L104.229 39.5368C104.39 39.6975 104.376 39.956 104.208 40.1097C103.37 40.8644 102.496 41.2696 101.015 41.2696C98.8418 41.2696 96.7526 40.2774 96.7526 36.5462C96.7526 33.5417 98.3806 31.8437 100.77 31.8437C103.335 31.8437 104.788 33.7163 104.788 36.2458V36.8886C104.788 37.0982 104.613 37.2729 104.404 37.2729H99.4427H99.4357ZM102.301 34.7085C102.056 34.1566 101.539 33.7513 100.763 33.7513C99.9877 33.7513 99.4707 34.1566 99.2261 34.7085C99.0864 35.0439 99.0305 35.2955 99.0165 35.7007H102.517C102.496 35.2955 102.447 35.0439 102.308 34.7085H102.301ZM108.959 41.1648C107.066 41.1648 106.269 39.8372 106.269 38.5306V28.958C106.269 28.7414 106.444 28.5737 106.654 28.5737H108.184C108.393 28.5737 108.568 28.7484 108.568 28.958V38.3909C108.568 38.9429 108.799 39.2224 109.379 39.2224H109.875C110.084 39.2224 110.259 39.397 110.259 39.6067V40.7805C110.259 40.9901 110.084 41.1648 109.875 41.1648H108.952H108.959ZM118.015 40.1377C117.449 40.7386 116.513 41.2696 115.15 41.2696C113.788 41.2696 112.865 40.7386 112.299 40.1377C111.468 39.2713 111.258 38.2302 111.258 36.5462C111.258 34.8623 111.468 33.8421 112.299 32.9757C112.865 32.3748 113.788 31.8437 115.15 31.8437C116.513 31.8437 117.449 32.3748 118.015 32.9757C118.847 33.8421 119.056 34.8832 119.056 36.5462C119.056 38.2092 118.847 39.2713 118.015 40.1377ZM116.226 34.3173C115.961 34.0517 115.611 33.912 115.15 33.912C114.689 33.912 114.354 34.0517 114.088 34.3173C113.613 34.7924 113.557 35.5889 113.557 36.5462C113.557 37.5035 113.613 38.314 114.088 38.7891C114.354 39.0547 114.689 39.1944 115.15 39.1944C115.611 39.1944 115.961 39.0547 116.226 38.7891C116.701 38.314 116.757 37.4965 116.757 36.5462C116.757 35.5959 116.701 34.7924 116.226 34.3173ZM127.511 40.4382C127.001 40.9482 126.169 41.2696 125.268 41.2696C124.366 41.2696 123.64 41.0251 123.039 40.3473V44.1554C123.039 44.365 122.864 44.5397 122.655 44.5397H121.124C120.915 44.5397 120.74 44.365 120.74 44.1554V32.3329C120.74 32.1163 120.915 31.9486 121.124 31.9486H122.585C122.794 31.9486 122.969 32.1232 122.969 32.3329V32.815C123.605 32.1093 124.297 31.8437 125.268 31.8437C126.169 31.8437 127.001 32.1652 127.511 32.6752C128.433 33.5976 128.447 35.1697 128.447 36.5462C128.447 37.9227 128.426 39.5158 127.511 40.4382ZM124.59 33.912C123.214 33.912 123.032 35.0439 123.032 36.5462C123.032 38.0485 123.207 39.2014 124.59 39.2014C125.974 39.2014 126.148 38.0485 126.148 36.5462C126.148 35.0439 125.974 33.912 124.59 33.912ZM141.297 41.1648C141.087 41.1648 140.912 40.9901 140.912 40.7805V35.5959C140.912 34.3382 140.116 33.919 139.389 33.919C138.663 33.919 137.852 34.3452 137.852 35.547V40.7875C137.852 40.9971 137.677 41.1718 137.468 41.1718H135.937C135.728 41.1718 135.553 40.9971 135.553 40.7875V35.6029C135.553 34.3452 134.757 33.926 134.03 33.926C133.303 33.926 132.493 34.3522 132.493 35.6029V40.7875C132.493 40.9971 132.318 41.1718 132.108 41.1718H130.578C130.369 41.1718 130.194 40.9971 130.194 40.7875V32.3468C130.194 32.1302 130.369 31.9625 130.578 31.9625H132.053C132.262 31.9625 132.437 32.1372 132.437 32.3468V32.808C133.038 32.1861 133.89 31.8507 134.736 31.8507C135.763 31.8507 136.594 32.2211 137.174 33.0176C137.95 32.2071 138.781 31.8507 139.934 31.8507C140.857 31.8507 141.688 32.1512 142.198 32.6683C142.939 33.4089 143.204 34.2753 143.204 35.2885V40.7945C143.204 41.0041 143.03 41.1788 142.82 41.1788H141.29L141.297 41.1648ZM147.432 37.2729C147.194 37.2729 147.005 37.4895 147.047 37.7201C147.208 38.6704 147.907 39.3202 149.025 39.3202C149.884 39.3202 150.366 39.1175 150.855 38.6983C151.009 38.5655 151.233 38.5725 151.379 38.7123L152.225 39.5368C152.386 39.6975 152.379 39.956 152.204 40.1097C151.365 40.8644 150.492 41.2696 149.011 41.2696C146.838 41.2696 144.748 40.2774 144.748 36.5462C144.748 33.5417 146.377 31.8437 148.766 31.8437C151.331 31.8437 152.784 33.7163 152.784 36.2458V36.8886C152.784 37.0982 152.609 37.2729 152.4 37.2729H147.439H147.432ZM150.303 34.7085C150.059 34.1566 149.542 33.7513 148.766 33.7513C147.991 33.7513 147.474 34.1566 147.229 34.7085C147.089 35.0439 147.033 35.2955 147.019 35.7007H150.52C150.499 35.2955 150.45 35.0439 150.31 34.7085H150.303ZM160.121 41.1648C159.911 41.1648 159.736 40.9901 159.736 40.7805V35.5959C159.736 34.3382 158.94 33.919 158.213 33.919C157.486 33.919 156.676 34.3452 156.676 35.5959V40.7805C156.676 40.9901 156.501 41.1648 156.292 41.1648H154.761C154.552 41.1648 154.377 40.9901 154.377 40.7805V32.3398C154.377 32.1232 154.552 31.9555 154.761 31.9555H156.236C156.445 31.9555 156.62 32.1302 156.62 32.3398V32.801C157.221 32.1652 158.073 31.8437 158.919 31.8437C159.841 31.8437 160.582 32.1442 161.092 32.6613C161.832 33.4019 162.028 34.2683 162.028 35.2815V40.7875C162.028 40.9971 161.853 41.1718 161.644 41.1718H160.114L160.121 41.1648ZM166.919 41.1648C165.047 41.1648 164.25 39.8372 164.25 38.5306V33.9679H163.663C163.447 33.9679 163.279 33.7932 163.279 33.5836V32.6054C163.279 32.3957 163.454 32.2211 163.663 32.2211H164.25V29.8803C164.25 29.6637 164.425 29.496 164.634 29.496H166.165C166.374 29.496 166.549 29.6707 166.549 29.8803V32.2211H167.793C168.002 32.2211 168.177 32.3957 168.177 32.6054V33.5836C168.177 33.7932 168.002 33.9679 167.793 33.9679H166.549V38.3909C166.549 38.9219 166.8 39.2224 167.345 39.2224H167.793C168.002 39.2224 168.177 39.397 168.177 39.6067V40.7805C168.177 40.9901 168.002 41.1648 167.793 41.1648H166.926H166.919ZM74.2325 58.1021H69.3483C69.1387 58.1021 68.964 57.9274 68.964 57.7178V45.8952C68.964 45.6856 69.1387 45.5109 69.3483 45.5109H74.0228C76.4824 45.5109 77.9148 46.8874 77.9148 49.0465C77.9148 50.444 76.9924 51.3454 76.3566 51.6458C77.1182 52.0022 78.0895 52.7987 78.0895 54.4757C78.0895 56.8304 76.4824 58.1021 74.2325 58.1021ZM73.8272 47.705H71.4236V50.6047H73.8272C74.8683 50.6047 75.4552 50.0248 75.4552 49.1513C75.4552 48.2779 74.8753 47.698 73.8272 47.698V47.705ZM73.9879 52.8197H71.4236V55.9151H73.9879C75.0989 55.9151 75.6299 55.2093 75.6299 54.3569C75.6299 53.5044 75.0989 52.8197 73.9879 52.8197ZM85.1606 58.1091C84.951 58.1091 84.7763 57.9344 84.7763 57.7248V57.3125C84.1545 57.9344 83.5745 58.1999 82.5124 58.1999C81.4504 58.1999 80.7097 57.9344 80.1577 57.3894C79.6616 56.8793 79.3961 56.1317 79.3961 55.3211C79.3961 53.8538 80.4023 52.652 82.5474 52.652H84.7204V52.1908C84.7204 51.1847 84.2243 50.7375 83.0085 50.7375C82.2888 50.7375 81.8836 50.8772 81.4993 51.2266C81.3455 51.3663 81.115 51.3733 80.9612 51.2266L80.0459 50.3322C79.8852 50.1785 79.8922 49.9199 80.0599 49.7662C80.8704 49.0116 81.7229 48.788 83.0924 48.788C85.6777 48.788 87.0193 49.885 87.0193 52.0441V57.7248C87.0193 57.9414 86.8446 58.1091 86.6349 58.1091H85.1606ZM84.7204 54.2172H82.8967C82.0652 54.2172 81.6041 54.6084 81.6041 55.2583C81.6041 55.9081 82.0303 56.3203 82.9317 56.3203C83.5675 56.3203 83.9728 56.2644 84.378 55.8801C84.6296 55.6495 84.7134 55.2792 84.7134 54.7132V54.2172H84.7204ZM94.7263 58.1091C94.5166 58.1091 94.342 57.9344 94.342 57.7248V52.5402C94.342 51.2825 93.5454 50.8562 92.8187 50.8562C92.0921 50.8562 91.2815 51.2825 91.2815 52.5402V57.7248C91.2815 57.9414 91.1068 58.1091 90.8972 58.1091H89.367C89.1574 58.1091 88.9827 57.9344 88.9827 57.7248V49.2841C88.9827 49.0745 89.1574 48.8998 89.367 48.8998H90.8413C91.0509 48.8998 91.2256 49.0745 91.2256 49.2841V49.7453C91.8265 49.1094 92.672 48.788 93.5244 48.788C94.4468 48.788 95.1874 49.0885 95.7045 49.5985C96.4451 50.3392 96.6408 51.2056 96.6408 52.2188V57.7248C96.6408 57.9414 96.4661 58.1091 96.2565 58.1091H94.7263ZM104.026 57.9204L101.874 54.273L100.903 55.3701V57.7248C100.903 57.9414 100.728 58.1091 100.519 58.1091H98.9885C98.7789 58.1091 98.6042 57.9344 98.6042 57.7248V45.9022C98.6042 45.6926 98.7789 45.5179 98.9885 45.5179H100.519C100.728 45.5179 100.903 45.6926 100.903 45.9022V52.659L103.845 49.0326C103.915 48.9417 104.026 48.8928 104.145 48.8928H105.878C106.213 48.8928 106.388 49.2841 106.165 49.5356L103.446 52.6101L106.598 57.5152C106.765 57.7737 106.577 58.1091 106.276 58.1091H104.355C104.215 58.1091 104.089 58.0392 104.019 57.9204H104.026Z"
     fill="#4D4D4F"
     id="path2" />
  <path
     d="M53.3913 59.5132C52.5737 59.5132 51.7423 59.3665 50.9387 59.0591L50.8479 59.0102L37.558 48.061L9.51788 43.4354C7.12821 42.541 5.50017 40.5566 5.0949 38.0971C4.68964 35.6446 5.59799 33.2339 7.5195 31.6618L7.61034 31.6059L24.0934 25.7924L41.7713 3.61467C43.7418 1.98663 46.2782 1.57438 48.6049 2.44779C50.9317 3.32819 52.5598 5.31259 52.965 7.76514L52.2384 31.8994L60.155 51.4988C60.5603 53.9513 59.6519 56.362 57.7304 57.9341C56.4727 58.9682 54.9494 59.4993 53.3913 59.4993V59.5132ZM51.2112 58.4931C53.3144 59.2687 55.5993 58.8844 57.3321 57.459C59.072 56.0336 59.8965 53.8605 59.5471 51.6455L51.6095 32.0181L52.3502 7.80707C51.9868 5.641 50.5055 3.83128 48.3953 3.03473C46.2852 2.23817 43.9793 2.61549 42.2255 4.04789L24.4987 26.3235L7.89682 32.1788C6.17794 33.6112 5.36741 35.7773 5.73075 37.9923C6.09409 40.2212 7.5754 42.031 9.69256 42.8275L37.8375 47.4601L37.9004 47.516L51.2112 58.4861V58.4931Z"
     fill="#006838"
     id="path4" />
  <path
     d="M51.8943 59.6036C51.2655 59.6036 50.6296 59.4918 50.0217 59.2612L50.0427 59.2123C48.7081 58.4158 39.1285 50.5131 37.5354 49.1366L10.774 42.1423C8.30743 41.213 6.44181 38.8722 6.00161 36.1612C5.63827 33.9601 6.32303 31.9618 7.88819 30.6831L7.92312 30.725C9.29963 29.9913 21.1781 25.799 23.2323 25.1282L42.3357 5.24924C44.376 3.57229 47.3386 3.13209 49.9099 4.10332C51.9991 4.89289 53.3826 6.486 53.711 8.4704H53.6621C53.7669 10.35 53.3197 28.3773 53.1101 30.8927H53.1451L58.4973 51.0302C58.9236 53.6295 57.8266 56.4104 55.7024 58.1572C54.5355 59.1145 53.2079 59.6106 51.8943 59.6106V59.6036ZM50.2593 58.6743C51.9223 59.2962 53.7669 58.9328 55.3111 57.6611C57.2326 56.082 58.2738 53.4687 57.8895 51.1559L52.4952 30.8718L52.5441 30.8228C52.6629 29.2227 53.1451 9.62331 53.0892 8.59617V8.57521C52.7957 6.8144 51.552 5.39598 49.6793 4.69026C47.3526 3.81684 44.5716 4.22211 42.7549 5.71041L23.5468 25.6872L23.4489 25.6662C22.303 26.0156 9.04808 30.8228 8.2655 31.1792C6.89599 32.3111 6.29508 34.0859 6.61649 36.0563C7.02176 38.5089 8.76859 40.7169 10.9626 41.5414L37.8638 48.5846L37.8917 48.6755C38.7861 49.479 49.5676 58.2062 50.2593 58.6813V58.6743Z"
     fill="#176E39"
     id="path6" />
  <path
     d="M50.5372 59.7164C50.0551 59.7164 49.5729 59.6325 49.1048 59.4508C48.7834 59.3041 47.7353 58.5495 43.1097 54.8811C38.8754 51.5202 37.7015 50.521 37.3661 50.1857L12.0161 40.8296C9.50066 39.8794 7.25074 37.0146 6.78259 34.1637C6.47515 32.2911 6.98522 30.705 8.22897 29.6849C8.51545 29.4822 9.71028 28.9722 15.3421 26.869C20.4708 24.9544 21.9591 24.4514 22.4272 24.3326L42.9 6.88523C44.9823 5.18032 48.5877 4.66326 51.2918 5.68341C53.0666 6.35419 54.1846 7.59095 54.4501 9.17008C54.52 9.58932 54.5689 11.3152 54.4082 19.6161C54.2614 27.2812 54.1636 29.3285 54.0798 29.9154L56.8677 50.6119C57.3009 53.2531 55.9454 56.635 53.7094 58.4656C52.6963 59.2901 51.6132 59.7164 50.5442 59.7164H50.5372ZM49.2795 58.8429L49.3284 58.8639C50.6071 59.346 52.0185 59.0316 53.3112 57.9765C55.3864 56.2716 56.6511 53.1483 56.2458 50.7027L53.4369 29.8526L53.4789 29.8106C53.6605 28.3643 53.968 11.3082 53.8562 9.44958L53.8282 9.27489C53.6046 7.92634 52.6264 6.85728 51.0682 6.27035C48.5528 5.32007 45.2129 5.79521 43.2983 7.36037L22.6718 24.9475L22.5809 24.9265C21.5119 25.192 9.59848 29.6569 8.66218 30.139L8.63423 30.167C7.57915 31.0334 7.14593 32.4169 7.41145 34.0589C7.84467 36.7071 9.92689 39.3693 12.2397 40.2427L37.7853 49.6756L37.8133 49.7594C38.5889 50.535 48.3641 58.277 49.2865 58.8429H49.2795Z"
     fill="#2B753A"
     id="path8" />
  <path
     d="M49.2863 59.8552C48.944 59.8552 48.6016 59.7993 48.2662 59.6805C48.0426 59.6526 47.288 59.2264 42.5785 55.572C38.6237 52.5115 37.5616 51.5683 37.2612 51.2468L13.2667 39.5221C10.6744 38.5439 7.96332 35.1271 7.48119 32.2204C7.23664 30.7391 7.59299 29.5442 8.51532 28.7477C8.65506 28.566 9.41668 28.1398 15.0624 25.9597C19.8068 24.1221 21.1763 23.6888 21.6026 23.591L43.4729 8.51239C45.618 6.75158 49.9361 6.10875 52.6892 7.14986C54.1216 7.68788 54.988 8.63117 55.1976 9.86094H55.1906C55.505 11.5798 55.3443 26.889 54.995 28.9433H55.0159L55.2325 50.1848C55.6797 52.8958 54.0796 56.9555 51.8018 58.8281C50.9773 59.4989 50.1318 59.8412 49.3003 59.8412L49.2863 59.8552ZM48.2382 58.9958L48.4129 59.0587C49.6077 59.5128 50.6978 58.9259 51.3965 58.3529C53.4927 56.6341 55.0159 52.7771 54.6037 50.2546L54.3801 28.8315L54.415 28.7966C54.6316 27.5319 54.7993 13.0332 54.6456 10.4199L54.5757 9.97972C54.3661 8.71502 53.318 8.07218 52.4725 7.75077C49.9431 6.7935 45.8346 7.4014 43.8572 9.02246L21.8122 24.2269L21.7283 24.2059C20.7152 24.4016 10.3949 28.4053 9.11623 29.09L8.99744 29.1879C8.00524 29.9984 7.97729 31.2352 8.12403 32.1295C8.56423 34.7987 11.1425 38.0548 13.5392 38.9561L37.7223 50.7717L37.7433 50.8555C38.421 51.6172 46.9526 58.2202 48.2522 59.0028L48.2382 58.9958Z"
     fill="#3A7B3A"
     id="path10" />
  <path
     d="M48.1066 60.0022C47.869 60.0022 47.6244 59.9672 47.3938 59.8904C47.2122 59.9113 46.6741 59.7506 42.0485 56.271C39.2187 54.1398 37.5767 52.8122 37.1574 52.3161L14.5185 38.2157C12.1358 37.3213 8.60024 33.4504 8.10414 30.4039C7.92247 29.2929 8.17402 28.3915 8.8448 27.7837C8.92166 27.616 9.3409 27.2386 14.784 25.0446C17.1387 24.0943 19.9686 22.9973 20.7722 22.8576L44.0469 10.1616C46.0104 8.54057 51.1321 7.4226 54.0178 8.50563C55.0869 8.9109 55.7367 9.59566 55.9184 10.49C56.3027 11.601 56.2817 26.1346 55.9114 27.9933H55.9323L53.5776 49.7448C53.9759 52.3301 52.3898 57.2841 50.0211 59.2266C49.3922 59.7437 48.7354 60.0092 48.0996 60.0092L48.1066 60.0022ZM47.1283 59.1218L47.4987 59.2615C48.1764 59.5201 48.8961 59.3384 49.6298 58.7375C51.8098 56.9557 53.347 52.1904 52.9558 49.8007V49.7588V49.7169L55.3245 27.8186L55.3524 27.7837C55.6179 26.6377 55.6598 13.5435 55.4293 11.1259L55.3943 11.1468L55.3175 10.6787C55.1987 9.96598 54.6886 9.42796 53.7942 9.09257C51.16 8.10037 46.2619 9.14148 44.3963 10.6787L20.9329 23.4934L20.8141 23.4655C20.0874 23.5354 11.2205 27.1059 9.59943 27.9793L9.33391 28.1959C8.77493 28.6571 8.56531 29.3628 8.71903 30.3061C9.1732 33.087 12.5271 36.8043 14.791 37.6567L37.6186 51.862L37.6395 51.9388C38.2055 52.6515 45.4793 58.1366 47.1213 59.1218H47.1283Z"
     fill="#47813B"
     id="path12" />
  <path
     d="M47.0011 60.1633C46.8194 60.1633 46.6587 60.1354 46.5189 60.0935H46.505C46.505 60.0935 46.484 60.0935 46.477 60.0935C45.5198 60.0935 38.1202 54.4687 37.1 53.3787L15.8306 36.9305C13.5318 36.0291 9.16472 31.683 8.6826 28.7414C8.52189 27.7492 8.85029 27.1622 9.19966 26.8199V26.8059C9.49313 26.0373 18.4369 22.4668 19.9392 22.1453L44.6044 11.8111C46.5329 10.2669 52.4791 8.65981 55.2671 9.71489C56.2103 10.0712 56.5597 10.6582 56.6785 11.1333C57.1886 11.7552 57.3143 25.3455 56.8672 27.0155H56.8811L51.969 49.305C52.3324 51.7576 50.7533 57.6898 48.4474 59.5764C47.9094 60.0166 47.4203 60.1564 47.015 60.1564L47.0011 60.1633ZM46.1486 59.2899L46.5958 59.4576C47.057 59.6323 47.5321 59.5135 48.0422 59.0943C50.0405 57.4593 51.7315 51.7995 51.3332 49.347V49.2841L56.3082 26.7709C56.6226 25.7298 56.5388 13.9422 56.2313 11.7971L56.1545 11.846L56.0776 11.3779C55.9937 10.8888 55.6584 10.5394 55.0435 10.3088C52.6259 9.40046 46.8823 10.756 44.9608 12.3351L44.8839 12.384L20.0789 22.7672L19.9811 22.7462C19.2614 22.7672 11.7011 25.9464 10.0521 26.8967L10.0801 26.9107L9.70973 27.2111C9.32543 27.5256 9.19267 27.9937 9.30447 28.6435C9.72371 31.1939 13.7764 35.4841 16.1031 36.3645L16.187 36.4134L37.5752 52.9594L37.5961 53.0293C38.0713 53.714 44.5485 58.4445 46.1696 59.3388V59.2969L46.1486 59.2899Z"
     fill="#54883B"
     id="path14" />
  <path
     d="M45.9286 60.3307C45.8238 60.3307 45.7259 60.3167 45.6351 60.2957C45.6141 60.3027 45.5862 60.3097 45.5582 60.3167C45.5443 60.3167 45.5373 60.3167 45.5233 60.3167C44.601 60.3167 37.6835 55.5374 36.9429 54.4194L17.0709 35.6305C14.9398 34.771 9.61546 29.9568 9.16827 27.2247C9.05648 26.547 9.25911 26.1207 9.50366 25.8622C9.50366 25.8412 9.51764 25.8203 9.52463 25.7923C9.79713 25.0657 17.7697 21.4462 19.1392 21.3903L45.146 13.4597C46.9557 12.0413 53.7893 9.84028 56.3746 10.8115C57.0244 11.0561 57.2899 11.4544 57.3948 11.7967C57.4087 11.8107 57.4227 11.8247 57.4367 11.8387C58.0166 12.5444 58.2752 24.5835 57.7791 26.0369H57.786L50.3096 48.8575C50.624 51.1493 49.1148 58.1436 46.9836 59.8905C46.5924 60.2119 46.229 60.3167 45.9286 60.3167V60.3307ZM45.2298 59.4852L45.677 59.6529C45.9635 59.7577 46.264 59.6878 46.5854 59.4153C48.458 57.8851 50.0511 51.1563 49.6808 48.8924L49.6668 48.8156L57.262 25.7294C57.6323 24.891 57.4297 14.3401 57.0174 12.4675L56.8917 12.5444L56.8148 12.0762C56.7659 11.7688 56.5493 11.5522 56.158 11.4054C53.8941 10.553 47.2771 12.5304 45.4953 13.9908L45.3905 14.0466L19.2021 22.0332L19.1182 22.0122H19.1112C18.2937 22.0122 11.6907 24.9329 10.3212 25.8692L10.419 25.9181L10.0487 26.2186C9.81111 26.4142 9.72726 26.7077 9.79713 27.1269C10.1884 29.5096 15.2123 34.254 17.3644 35.0715L17.4692 35.1344L37.4739 54.0491L37.4949 54.1119C37.9141 54.8316 43.7625 58.9402 45.2368 59.604V59.4852H45.2298Z"
     fill="#61903B"
     id="path16" />
  <path
     d="M44.5642 60.5477C43.5301 60.5477 37.4441 56.5369 36.8432 55.4679L18.3338 34.3312C16.3773 33.5207 10.0468 28.3431 9.63456 25.8416C9.56469 25.4014 9.67648 25.108 9.83021 24.9123C9.83021 24.8634 9.83719 24.8145 9.85816 24.7726C10.1656 23.9551 16.9852 20.671 18.2919 20.671H18.3128L45.7031 15.1161C47.3801 13.8304 55.0312 10.9307 57.4069 11.8251C57.8331 11.9858 58.0287 12.2373 58.1196 12.4749C58.1545 12.4958 58.1895 12.5308 58.2174 12.5657C58.8952 13.3902 59.2655 23.8083 58.6995 25.08L48.6657 48.4386C48.9313 50.5558 47.6176 58.5982 45.6612 60.2053C45.3188 60.4848 45.0044 60.5337 44.7598 60.4987C44.7179 60.5197 44.669 60.5407 44.6131 60.5477C44.5991 60.5477 44.5851 60.5477 44.5642 60.5477ZM37.4022 55.1954C37.7376 55.9081 43.006 59.4367 44.3196 59.8769V59.6812L44.7528 59.8489C44.8507 59.8839 45.0184 59.9118 45.2629 59.7092C46.9329 58.3397 48.3653 50.451 48.0299 48.4386L48.0159 48.3478L48.0508 48.2639L58.1405 24.7726L58.1755 24.7306C58.6087 23.9201 58.2873 14.7108 57.7982 13.1387L57.6235 13.2505L57.5466 12.7823C57.5326 12.6775 57.4698 12.5238 57.1763 12.412C55.157 11.6504 47.6106 14.3545 46.0315 15.6471L45.9686 15.696L45.8918 15.71L18.3198 21.3069L18.2499 21.2929C17.4604 21.216 11.6749 23.9411 10.5918 24.8494L10.7525 24.9333L10.3822 25.2337C10.2984 25.3036 10.1935 25.4294 10.2494 25.7438C10.5988 27.8749 16.7197 33.0595 18.6272 33.7792L18.7041 33.8072L18.753 33.8631L37.3812 55.1395L37.3952 55.2024L37.4022 55.1954Z"
     fill="#6E983B"
     id="path18" />
  <path
     d="M43.5791 60.7913C42.4122 60.7913 37.2346 57.5562 36.7455 56.5221L19.5986 33.0307C17.6701 32.2132 10.4243 26.6862 10.0749 24.5621C10.033 24.3036 10.0749 24.1079 10.1657 23.9682C10.1518 23.8913 10.1657 23.8075 10.1937 23.7236C10.5431 22.7943 16.2797 19.8247 17.4815 19.9435L46.2622 16.7573C47.7575 15.6533 56.2471 11.95 58.3573 12.7465C58.6158 12.8444 58.7556 12.9911 58.8394 13.1378C58.9023 13.1658 58.9652 13.2147 59.0211 13.2846C59.8037 14.2418 60.2578 22.983 59.615 24.1009L47.0239 47.9976C47.2754 50.1007 46.1085 59.1074 44.4455 60.4699C44.2429 60.6376 44.0543 60.6865 43.8935 60.6865C43.8307 60.7424 43.7538 60.7774 43.656 60.7913C43.635 60.7913 43.6071 60.7913 43.5791 60.7913ZM37.3185 56.2775C37.563 56.9623 42.2934 59.9389 43.4044 60.1555L43.3905 59.876L43.8376 60.0437C43.8376 60.0437 43.9215 60.0786 44.0473 59.9808C45.4238 58.8559 46.6885 49.8352 46.388 47.9906L46.3671 47.8858L46.416 47.7949L59.1049 23.7376C59.5661 23.0249 59.1399 15.0663 58.6018 13.8086L58.3713 13.9553L58.2944 13.4872C58.2944 13.4872 58.2804 13.3964 58.1337 13.3405C56.4707 12.7116 48.03 16.1284 46.5767 17.3093L46.5068 17.3652L17.4535 20.5793L17.3976 20.5653C16.6779 20.4256 11.654 22.969 10.8645 23.8144L11.102 23.9402L10.7317 24.2407C10.7317 24.2407 10.6618 24.3036 10.6828 24.4573C10.9693 26.2111 18.1523 31.8219 19.8991 32.4787L19.9899 32.5137L37.3115 56.2775H37.3185Z"
     fill="#7AA03A"
     id="path20" />
  <path
     d="M42.5479 61.0642C41.2342 61.0642 37.0698 58.6187 36.6575 57.5776L20.8732 31.7245C19.1823 30.9698 10.7975 25.1704 10.504 23.3537C10.483 23.2349 10.49 23.1301 10.525 23.0323C10.4761 22.9135 10.4761 22.7807 10.525 22.634C10.9163 21.5999 15.5139 19.0285 16.6598 19.2102L46.8311 18.3997C48.3264 17.3096 57.5426 12.9495 59.2615 13.5994C59.3803 13.6413 59.4781 13.7112 59.548 13.795C59.6528 13.816 59.7646 13.8789 59.8624 14.0046C60.6241 14.9339 61.3647 22.2567 60.5053 23.158L45.3987 47.5508C45.5873 49.4164 44.7558 59.548 43.3374 60.7079C43.2466 60.7847 43.1488 60.8337 43.0509 60.8546C42.9741 60.9594 42.8483 61.0293 42.6946 61.0572C42.6527 61.0572 42.6107 61.0642 42.5618 61.0642H42.5479ZM11.1398 22.7807L11.4683 22.9484L11.0979 23.2489C10.9512 24.255 19.4617 30.5296 21.1946 31.1795L21.2924 31.2144L21.3483 31.3052L37.2375 57.347C37.3353 57.6824 38.614 58.6746 40.291 59.562C41.4928 60.1978 42.2264 60.4214 42.4989 60.4354L42.485 60.0651L42.9322 60.2327C43.8754 59.8624 45.0563 49.3465 44.7558 47.5228L44.7349 47.404L60.0022 22.7667C60.5891 22.054 60.0581 15.3741 59.4152 14.4518L59.1218 14.6405L59.0449 14.1723C58.2484 13.5365 48.5639 17.7778 47.1315 18.9517L47.0477 19.0215H46.9429L16.5969 19.839H16.555C15.7864 19.6504 11.601 21.9562 11.1398 22.7737V22.7807Z"
     fill="#85A939"
     id="path22" />
  <path
     d="M41.4613 61.3793C40.1547 61.3793 36.9336 59.7303 36.5632 58.6403L22.1344 30.4255C20.6182 29.7058 11.1364 23.6827 10.8918 22.2224C10.8918 22.1804 10.8848 22.1455 10.8918 22.1106C10.773 21.9498 10.7521 21.7332 10.8359 21.5027C11.2482 20.4126 14.672 18.2186 15.8598 18.4981L47.3936 20.0493C48.7701 19.099 58.72 13.8935 60.1105 14.4105C60.1524 14.4245 60.1943 14.4455 60.2223 14.4664C60.369 14.4525 60.5577 14.5153 60.7463 14.7459C61.6198 15.815 62.2905 21.2511 61.4311 22.1525L43.7532 47.1042C43.8859 48.8021 43.4178 59.9958 42.2719 60.9321C42.2439 60.9601 42.209 60.974 42.181 60.995C42.0972 61.1837 41.9155 61.3164 41.664 61.3583C41.6081 61.3653 41.5452 61.3723 41.4753 61.3723L41.4613 61.3793ZM11.5347 22.2014C12.1426 23.3822 21.1003 29.3704 22.4628 29.8874L22.5746 29.9294L37.1432 58.4237C37.2899 58.9198 38.876 59.9539 40.2875 60.4709C41.1679 60.7924 41.5312 60.7574 41.5941 60.7155L41.5731 60.2404L41.8946 60.3801C42.6212 59.2691 43.327 48.5087 43.0894 47.0693L43.0684 46.9435L43.1453 46.8387L60.921 21.7542C61.2285 21.4258 61.2844 19.5602 60.942 17.4989C60.6695 15.8429 60.3411 15.242 60.2083 15.1162L59.852 15.3259L59.7891 14.9905C59.7891 14.9905 59.7611 14.9905 59.7472 14.9905C58.3148 14.9905 48.7771 19.6929 47.6521 20.6153L47.5613 20.6921H47.4425L15.741 19.12C15.175 18.9942 13.4632 19.8327 12.2753 20.783C11.5416 21.3699 11.3809 21.6983 11.3809 21.7752L11.8002 21.9988L11.5137 22.2014H11.5347ZM59.7821 14.8857C59.7821 14.8857 59.7821 14.8857 59.7821 14.8927V14.8857Z"
     fill="#92B338"
     id="path24" />
  <path
     d="M40.2681 61.7703C39.0453 61.7703 36.8233 60.806 36.4809 59.709L23.4007 29.1185C22.0801 28.3849 11.7388 22.4317 11.2916 21.2019C11.0471 20.9853 10.9842 20.6499 11.1239 20.2726C11.5502 19.1336 13.87 17.4986 15.0019 17.7781L47.9611 21.705C49.2607 20.9294 59.6718 14.9063 60.8807 15.1788C61.0903 15.1229 61.4047 15.1369 61.7261 15.5282C62.5716 16.5623 63.2494 20.2097 62.348 21.153L42.0848 46.6846C42.1057 48.2149 42.1197 60.1213 41.2812 61.1205C41.2113 61.4489 40.9528 61.6725 40.5406 61.7423C40.4567 61.7563 40.3589 61.7633 40.2541 61.7633L40.2681 61.7703ZM11.9834 21.132C13.1223 22.3478 22.7439 28.2102 23.757 28.5945L23.8828 28.6434L23.9317 28.7692L37.0749 59.5064C37.3054 60.3029 39.5414 61.2742 40.4497 61.1274C40.6803 61.0855 40.6803 61.0087 40.6733 60.9458L40.6524 60.4706L40.8829 60.5615C41.3651 58.9684 41.6376 47.6978 41.4629 46.6357L41.4419 46.496L41.5258 46.3842L61.8729 20.7477C62.4528 20.1398 62.0056 16.8698 61.237 15.9335C61.0903 15.7518 61.0344 15.7867 61.0064 15.8007L60.6081 16.0592L60.5662 15.8147C58.9452 16.192 49.0511 21.5932 48.2196 22.2779L48.1148 22.3618L47.9821 22.3478L14.8831 18.4C14.0097 18.1904 12.0253 19.6367 11.7039 20.4962C11.627 20.6988 11.6899 20.7268 11.7458 20.7617L12.172 20.9853L11.9764 21.146L11.9834 21.132Z"
     fill="#A0BD36"
     id="path26" />
  <path
     d="M38.9476 62.2873C37.9135 62.2873 36.6698 61.6934 36.3903 60.7641L24.6655 27.8119C23.331 27.0992 13.2622 21.5932 11.8159 20.3145C11.2848 20.042 11.1101 19.497 11.3547 18.8541C11.739 17.82 13.0806 16.7859 14.1566 17.0444L48.5203 23.347C49.8059 22.5504 59.6021 16.5833 61.4328 15.9684C61.915 15.6609 62.467 15.8007 62.9141 16.3457C63.6408 17.2331 64.1299 19.2664 63.2915 20.1538L40.4639 46.2374C40.5128 47.7607 40.7783 59.2199 40.394 61.1135C40.422 61.7144 40.0237 62.1476 39.3389 62.2594C39.2132 62.2803 39.0874 62.2873 38.9546 62.2873H38.9476ZM12.4238 20.0699C14.1077 21.2648 24.3791 27.0293 25.0289 27.3088L25.1547 27.3647L25.2106 27.4975L36.9842 60.5894C37.1868 61.2881 38.4166 61.7773 39.2271 61.6445C39.7721 61.5537 39.7582 61.2462 39.7582 61.1484L39.7372 60.6733L39.856 60.7152C40.0516 58.6609 39.9049 46.8873 39.821 46.1746L39.8071 46.0348L39.8979 45.923L62.8163 19.7345C63.3543 19.1686 63.0399 17.5056 62.418 16.751C62.0547 16.3108 61.8311 16.4505 61.7542 16.4994L61.349 16.7579L61.328 16.6322C59.4484 17.4916 49.3308 23.5077 48.7578 23.9339L48.646 24.0178L48.5063 23.9968L14.0099 17.6663C13.2692 17.4916 12.2211 18.3161 11.9277 19.0777C11.739 19.5808 11.9975 19.7136 12.0954 19.7625L12.5146 19.9861L12.4168 20.0629L12.4238 20.0699Z"
     fill="#AEC833"
     id="path28" />
  <path
     d="M37.8426 62.9999C37.2208 62.9999 36.536 62.6575 36.2984 61.833L25.9292 26.5191L12.1572 19.3361C11.2838 18.8819 11.1441 17.9736 11.3886 17.3307C11.6332 16.6809 12.3319 16.094 13.2892 16.3246L49.0573 25.0028L62.1585 16.6669C62.99 16.1359 63.8424 16.4713 64.2826 17.0023C64.7228 17.5334 64.8836 18.4347 64.2058 19.1474L38.8069 45.7831L39.4707 61.302C39.5126 62.2872 38.7999 62.8601 38.1151 62.9719C38.0313 62.9859 37.9335 62.9929 37.8426 62.9929V62.9999ZM36.8993 61.6583C37.081 62.2802 37.619 62.4269 38.0103 62.357C38.4086 62.2941 38.8628 61.9867 38.8418 61.3369L38.164 45.5525L63.7446 18.7212C64.1918 18.2531 64.0521 17.722 63.7935 17.4076C63.535 17.0932 63.0389 16.8486 62.4939 17.198L49.1621 25.6736L49.0293 25.6457L13.1424 16.9395C12.5136 16.7857 12.1223 17.177 11.9825 17.5543C11.8358 17.9317 11.8777 18.4837 12.4507 18.7841L26.4603 26.0928L26.4952 26.2186L36.8993 61.6653V61.6583Z"
     fill="#BED630"
     id="path30" />
</svg>
